<svg xmlns="http://www.w3.org/2000/svg" xmlns:xlink="http://www.w3.org/1999/xlink" width="204" zoomAndPan="magnify" viewBox="0 0 153 36.750001" height="49" preserveAspectRatio="xMidYMid meet" version="1.0"><defs><clipPath id="4833d61ab8"><path d="M 10.664062 1.972656 L 142.519531 1.972656 L 142.519531 34.75 L 10.664062 34.75 Z M 10.664062 1.972656 " clip-rule="nonzero"/></clipPath><clipPath id="5bbc4e24c4"><path d="M 137.324219 13.242188 L 142.335938 13.242188 L 142.335938 18.25 L 137.324219 18.25 Z M 137.324219 13.242188 " clip-rule="nonzero"/></clipPath><clipPath id="4d6614a160"><path d="M 0.324219 0.242188 L 5.335938 0.242188 L 5.335938 5.25 L 0.324219 5.25 Z M 0.324219 0.242188 " clip-rule="nonzero"/></clipPath><clipPath id="b7fb16d31f"><rect x="0" width="6" y="0" height="6"/></clipPath></defs><g clip-path="url(#4833d61ab8)"><path fill="#092517" d="M 14.320312 25.710938 L 14.085938 21.699219 L 26.582031 19.832031 C 26.488281 18.652344 26.039062 17.625 25.230469 16.757812 C 24.421875 15.886719 23.242188 15.449219 21.6875 15.449219 C 20.101562 15.449219 18.78125 16.011719 17.722656 17.128906 C 16.667969 18.21875 16.121094 19.789062 16.089844 21.839844 L 16.230469 24.265625 C 16.511719 26.253906 17.273438 27.714844 18.515625 28.648438 C 19.789062 29.578125 21.390625 30.046875 23.320312 30.046875 C 24.625 30.046875 25.835938 29.859375 26.957031 29.488281 C 28.074219 29.082031 28.960938 28.648438 29.613281 28.179688 C 30.050781 28.460938 30.390625 28.816406 30.640625 29.253906 C 30.917969 29.65625 31.058594 30.109375 31.058594 30.605469 C 31.058594 31.414062 30.703125 32.113281 29.988281 32.703125 C 29.273438 33.261719 28.308594 33.699219 27.097656 34.007812 C 25.882812 34.320312 24.5 34.476562 22.945312 34.476562 C 20.550781 34.476562 18.421875 34.039062 16.558594 33.171875 C 14.722656 32.269531 13.277344 30.933594 12.222656 29.160156 C 11.195312 27.386719 10.683594 25.179688 10.683594 22.539062 C 10.683594 20.640625 10.976562 18.980469 11.566406 17.550781 C 12.160156 16.117188 12.953125 14.9375 13.945312 14.003906 C 14.972656 13.042969 16.152344 12.328125 17.488281 11.859375 C 18.828125 11.363281 20.226562 11.113281 21.6875 11.113281 C 23.738281 11.113281 25.527344 11.535156 27.050781 12.375 C 28.605469 13.179688 29.816406 14.316406 30.6875 15.777344 C 31.589844 17.238281 32.039062 18.917969 32.039062 20.8125 C 32.039062 21.683594 31.804688 22.335938 31.339844 22.773438 C 30.902344 23.175781 30.28125 23.425781 29.472656 23.519531 Z M 47.996094 15.730469 C 46.128906 15.730469 44.5625 16.335938 43.285156 17.550781 C 42.042969 18.761719 41.421875 20.535156 41.421875 22.863281 C 41.421875 25.164062 42.027344 26.90625 43.238281 28.085938 C 44.453125 29.269531 46.023438 29.859375 47.949219 29.859375 C 49.101562 29.859375 50.0625 29.71875 50.839844 29.441406 C 51.648438 29.128906 52.347656 28.800781 52.9375 28.460938 C 53.40625 28.742188 53.761719 29.082031 54.011719 29.488281 C 54.292969 29.859375 54.429688 30.324219 54.429688 30.886719 C 54.429688 31.941406 53.792969 32.8125 52.519531 33.496094 C 51.246094 34.148438 49.566406 34.476562 47.484375 34.476562 C 45.121094 34.476562 43.039062 34.054688 41.234375 33.21875 C 39.460938 32.347656 38.0625 31.039062 37.039062 29.300781 C 36.042969 27.558594 35.546875 25.414062 35.546875 22.863281 C 35.546875 20.222656 36.074219 18.03125 37.132812 16.289062 C 38.21875 14.550781 39.648438 13.257812 41.421875 12.417969 C 43.222656 11.550781 45.199219 11.113281 47.34375 11.113281 C 49.394531 11.113281 51.042969 11.472656 52.285156 12.1875 C 53.53125 12.902344 54.152344 13.789062 54.152344 14.84375 C 54.152344 15.3125 54.027344 15.746094 53.777344 16.148438 C 53.53125 16.554688 53.234375 16.878906 52.890625 17.128906 C 52.269531 16.757812 51.570312 16.429688 50.792969 16.148438 C 50.015625 15.871094 49.085938 15.730469 47.996094 15.730469 Z M 80.25 22.773438 C 80.25 25.164062 79.785156 27.25 78.851562 29.019531 C 77.917969 30.761719 76.597656 32.113281 74.886719 33.078125 C 73.210938 34.007812 71.21875 34.476562 68.917969 34.476562 C 66.617188 34.476562 64.613281 34.007812 62.902344 33.078125 C 61.195312 32.113281 59.859375 30.761719 58.894531 29.019531 C 57.960938 27.277344 57.496094 25.195312 57.496094 22.773438 C 57.496094 20.378906 57.976562 18.3125 58.941406 16.570312 C 59.902344 14.828125 61.242188 13.492188 62.949219 12.558594 C 64.660156 11.597656 66.648438 11.113281 68.917969 11.113281 C 71.1875 11.113281 73.164062 11.597656 74.839844 12.558594 C 76.550781 13.492188 77.871094 14.84375 78.804688 16.617188 C 79.769531 18.355469 80.25 20.410156 80.25 22.773438 Z M 68.917969 15.683594 C 67.210938 15.683594 65.855469 16.304688 64.863281 17.550781 C 63.898438 18.792969 63.417969 20.535156 63.417969 22.773438 C 63.417969 25.070312 63.898438 26.84375 64.863281 28.085938 C 65.824219 29.300781 67.179688 29.90625 68.917969 29.90625 C 70.628906 29.90625 71.964844 29.285156 72.929688 28.039062 C 73.894531 26.796875 74.375 25.042969 74.375 22.773438 C 74.375 20.566406 73.894531 18.839844 72.929688 17.59375 C 71.964844 16.320312 70.628906 15.683594 68.917969 15.683594 Z M 93.925781 30.140625 C 94.859375 30.140625 95.699219 30.046875 96.445312 29.859375 C 97.191406 29.671875 97.734375 29.472656 98.078125 29.253906 L 98.078125 23.9375 L 93.460938 24.402344 C 92.1875 24.496094 91.207031 24.777344 90.523438 25.242188 C 89.871094 25.679688 89.542969 26.332031 89.542969 27.203125 C 89.542969 28.101562 89.902344 28.816406 90.617188 29.347656 C 91.332031 29.875 92.433594 30.140625 93.925781 30.140625 Z M 93.695312 11.113281 C 96.742188 11.113281 99.164062 11.765625 100.96875 13.074219 C 102.769531 14.347656 103.671875 16.367188 103.671875 19.132812 L 103.671875 29.859375 C 103.671875 30.605469 103.484375 31.195312 103.113281 31.632812 C 102.769531 32.066406 102.320312 32.457031 101.761719 32.796875 C 100.890625 33.292969 99.785156 33.699219 98.449219 34.007812 C 97.113281 34.351562 95.605469 34.523438 93.925781 34.523438 C 90.816406 34.523438 88.378906 33.933594 86.605469 32.75 C 84.832031 31.539062 83.949219 29.75 83.949219 27.386719 C 83.949219 25.304688 84.601562 23.71875 85.90625 22.632812 C 87.242188 21.511719 89.171875 20.828125 91.6875 20.578125 L 98.03125 19.925781 L 98.03125 19.085938 C 98.03125 17.84375 97.59375 16.941406 96.726562 16.382812 C 95.886719 15.824219 94.6875 15.542969 93.132812 15.542969 C 91.921875 15.542969 90.742188 15.699219 89.589844 16.011719 C 88.441406 16.320312 87.414062 16.695312 86.511719 17.128906 C 86.203125 16.878906 85.921875 16.539062 85.671875 16.101562 C 85.425781 15.667969 85.300781 15.21875 85.300781 14.75 C 85.300781 13.632812 85.921875 12.808594 87.164062 12.28125 C 88.035156 11.875 89.046875 11.582031 90.195312 11.394531 C 91.378906 11.207031 92.542969 11.113281 93.695312 11.113281 Z M 109.289062 5.191406 C 109.289062 4.289062 109.601562 3.527344 110.222656 2.90625 C 110.875 2.285156 111.683594 1.972656 112.648438 1.972656 C 113.644531 1.972656 114.4375 2.285156 115.027344 2.90625 C 115.648438 3.527344 115.957031 4.289062 115.957031 5.191406 C 115.957031 6.0625 115.648438 6.824219 115.027344 7.476562 C 114.4375 8.097656 113.644531 8.410156 112.648438 8.410156 C 111.683594 8.410156 110.875 8.097656 110.222656 7.476562 C 109.601562 6.824219 109.289062 6.0625 109.289062 5.191406 Z M 109.757812 21.511719 L 115.539062 21.511719 L 115.539062 33.730469 C 115.289062 33.824219 114.933594 33.902344 114.464844 33.964844 C 114 34.054688 113.488281 34.101562 112.929688 34.101562 C 111.871094 34.101562 111.078125 33.917969 110.550781 33.542969 C 110.019531 33.140625 109.757812 32.441406 109.757812 31.445312 Z M 115.539062 24.449219 L 109.757812 24.449219 L 109.757812 11.953125 C 110.003906 11.859375 110.363281 11.78125 110.828125 11.71875 C 111.328125 11.628906 111.855469 11.582031 112.414062 11.582031 C 113.503906 11.582031 114.296875 11.78125 114.792969 12.1875 C 115.289062 12.558594 115.539062 13.257812 115.539062 14.285156 Z M 136.324219 28.972656 L 136.324219 14.332031 L 142.058594 14.332031 L 142.058594 29.578125 C 142.058594 30.261719 141.90625 30.839844 141.59375 31.304688 C 141.3125 31.742188 140.847656 32.160156 140.195312 32.5625 C 139.449219 33.0625 138.421875 33.496094 137.117188 33.871094 C 135.84375 34.273438 134.382812 34.476562 132.734375 34.476562 C 130.277344 34.476562 128.132812 34.070312 126.300781 33.261719 C 124.496094 32.425781 123.097656 31.148438 122.101562 29.441406 C 121.109375 27.699219 120.609375 25.507812 120.609375 22.863281 C 120.609375 20.160156 121.109375 17.9375 122.101562 16.195312 C 123.128906 14.457031 124.496094 13.179688 126.207031 12.375 C 127.914062 11.535156 129.8125 11.113281 131.894531 11.113281 C 133.046875 11.113281 134.085938 11.253906 135.019531 11.535156 C 135.984375 11.8125 136.761719 12.140625 137.351562 12.511719 L 137.351562 17.410156 C 136.851562 16.941406 136.199219 16.539062 135.390625 16.195312 C 134.582031 15.855469 133.652344 15.683594 132.59375 15.683594 C 131.445312 15.683594 130.402344 15.933594 129.46875 16.429688 C 128.539062 16.894531 127.808594 17.671875 127.277344 18.761719 C 126.75 19.820312 126.484375 21.203125 126.484375 22.910156 C 126.484375 25.335938 127.046875 27.109375 128.164062 28.226562 C 129.285156 29.347656 130.792969 29.90625 132.6875 29.90625 C 133.527344 29.90625 134.242188 29.8125 134.832031 29.625 C 135.421875 29.441406 135.921875 29.222656 136.324219 28.972656 Z M 142.058594 15.496094 L 136.324219 15.542969 L 136.324219 3.511719 C 136.542969 3.449219 136.882812 3.375 137.351562 3.28125 C 137.847656 3.1875 138.359375 3.140625 138.890625 3.140625 C 140.007812 3.140625 140.816406 3.34375 141.3125 3.746094 C 141.8125 4.121094 142.058594 4.804688 142.058594 5.796875 Z M 142.058594 15.496094 " fill-opacity="1" fill-rule="nonzero"/></g><g clip-path="url(#5bbc4e24c4)"><g transform="matrix(1, 0, 0, 1, 137, 13)"><g clip-path="url(#b7fb16d31f)"><g clip-path="url(#4d6614a160)"><path fill="#092517" d="M 0.324219 0.242188 L 5.335938 0.242188 L 5.335938 5.25 L 0.324219 5.25 Z M 0.324219 0.242188 " fill-opacity="1" fill-rule="nonzero"/></g></g></g></g></svg>